<svg xmlns="http://www.w3.org/2000/svg" xmlns:xlink="http://www.w3.org/1999/xlink" zoomAndPan="magnify" preserveAspectRatio="xMidYMid meet" version="1.0" viewBox="12.54 153.11 349.43 68.78"><defs><g/><clipPath id="164523fdee"><path d="M 12.542969 153.109375 L 81.542969 153.109375 L 81.542969 222 L 12.542969 222 Z M 12.542969 153.109375 " clip-rule="nonzero"/></clipPath></defs><g clip-path="url(#164523fdee)"><path fill="#30b27c" d="M 46.929688 153.109375 L 12.542969 153.109375 L 12.542969 156.550781 C 12.542969 170.144531 20.472656 181.921875 31.949219 187.5 C 20.472656 193.078125 12.542969 204.851562 12.542969 218.445312 L 12.542969 221.886719 L 46.929688 221.886719 C 65.890625 221.886719 81.320312 206.460938 81.320312 187.5 C 81.320312 168.535156 65.894531 153.109375 46.929688 153.109375 Z M 19.636719 159.988281 L 46.933594 159.988281 C 60.9375 159.988281 72.53125 170.507812 74.230469 184.058594 L 46.929688 184.058594 C 32.929688 184.058594 21.332031 173.539062 19.636719 159.988281 Z M 46.929688 215.011719 L 19.636719 215.011719 C 21.335938 201.457031 32.929688 190.9375 46.933594 190.9375 L 74.230469 190.9375 C 72.53125 204.492188 60.9375 215.011719 46.929688 215.011719 Z M 46.929688 215.011719 " fill-opacity="1" fill-rule="nonzero"/></g><g fill="#010101" fill-opacity="1"><g transform="translate(98.957129, 214.499986)"><g><path d="M 26.84375 0.765625 C 22.382812 0.765625 18.492188 -0.0507812 15.171875 -1.6875 C 11.847656 -3.332031 9.265625 -5.628906 7.421875 -8.578125 C 5.578125 -11.535156 4.65625 -14.960938 4.65625 -18.859375 L 4.65625 -53.84375 L 15.640625 -53.84375 L 15.640625 -19.765625 C 15.640625 -17.671875 16.101562 -15.8125 17.03125 -14.1875 C 17.957031 -12.5625 19.265625 -11.285156 20.953125 -10.359375 C 22.640625 -9.429688 24.601562 -8.96875 26.84375 -8.96875 C 29.113281 -8.96875 31.082031 -9.429688 32.75 -10.359375 C 34.425781 -11.285156 35.726562 -12.5625 36.65625 -14.1875 C 37.582031 -15.8125 38.046875 -17.671875 38.046875 -19.765625 L 38.046875 -53.84375 L 49.0625 -53.84375 L 49.0625 -18.859375 C 49.0625 -14.960938 48.140625 -11.535156 46.296875 -8.578125 C 44.460938 -5.628906 41.875 -3.332031 38.53125 -1.6875 C 35.195312 -0.0507812 31.300781 0.765625 26.84375 0.765625 Z M 26.84375 0.765625 "/></g></g></g><g fill="#010101" fill-opacity="1"><g transform="translate(152.644817, 214.499986)"><g><path d="M 15.21875 -22.90625 L 15.21875 0 L 4.4375 0 L 4.4375 -39.890625 L 14.703125 -39.890625 L 14.84375 -29.84375 L 13.953125 -29.84375 C 15.035156 -33.21875 16.664062 -35.832031 18.84375 -37.6875 C 21.019531 -39.539062 23.820312 -40.46875 27.25 -40.46875 C 30.019531 -40.46875 32.4375 -39.863281 34.5 -38.65625 C 36.570312 -37.457031 38.175781 -35.722656 39.3125 -33.453125 C 40.445312 -31.191406 41.015625 -28.472656 41.015625 -25.296875 L 41.015625 0 L 30.25 0 L 30.25 -23.375 C 30.25 -25.90625 29.609375 -27.875 28.328125 -29.28125 C 27.046875 -30.695312 25.265625 -31.40625 22.984375 -31.40625 C 21.460938 -31.40625 20.117188 -31.070312 18.953125 -30.40625 C 17.785156 -29.738281 16.867188 -28.78125 16.203125 -27.53125 C 15.546875 -26.28125 15.21875 -24.738281 15.21875 -22.90625 Z M 15.21875 -22.90625 "/></g></g></g><g fill="#010101" fill-opacity="1"><g transform="translate(198.095093, 214.499986)"><g><path d="M 4.4375 0 L 4.4375 -39.890625 L 15.21875 -39.890625 L 15.21875 0 Z M 9.828125 -45.0625 C 8.171875 -45.0625 6.753906 -45.601562 5.578125 -46.6875 C 4.410156 -47.769531 3.828125 -49.09375 3.828125 -50.65625 C 3.828125 -52.21875 4.410156 -53.539062 5.578125 -54.625 C 6.753906 -55.71875 8.171875 -56.265625 9.828125 -56.265625 C 11.492188 -56.265625 12.90625 -55.71875 14.0625 -54.625 C 15.21875 -53.539062 15.796875 -52.21875 15.796875 -50.65625 C 15.796875 -49.09375 15.21875 -47.769531 14.0625 -46.6875 C 12.90625 -45.601562 11.492188 -45.0625 9.828125 -45.0625 Z M 9.828125 -45.0625 "/></g></g></g><g fill="#010101" fill-opacity="1"><g transform="translate(217.749266, 214.499986)"><g><path d="M 20.34375 0.71875 C 14.78125 0.71875 10.394531 -0.742188 7.1875 -3.671875 C 3.988281 -6.597656 2.390625 -10.769531 2.390625 -16.1875 L 2.390625 -19.4375 L 13.296875 -19.4375 L 13.296875 -16.078125 C 13.296875 -13.523438 13.921875 -11.585938 15.171875 -10.265625 C 16.429688 -8.941406 18.144531 -8.28125 20.3125 -8.28125 C 22.445312 -8.28125 24.132812 -8.941406 25.375 -10.265625 C 26.625 -11.585938 27.25 -13.523438 27.25 -16.078125 L 27.25 -53.84375 L 38.234375 -53.84375 L 38.234375 -16.1875 C 38.234375 -10.769531 36.632812 -6.597656 33.4375 -3.671875 C 30.25 -0.742188 25.882812 0.71875 20.34375 0.71875 Z M 20.34375 0.71875 "/></g></g></g><g fill="#010101" fill-opacity="1"><g transform="translate(258.755424, 214.499986)"><g><path d="M 1.453125 0 L 19.984375 -53.84375 L 34.359375 -53.84375 L 53.265625 0 L 40.96875 0 L 32.375 -26.015625 C 31.34375 -29.390625 30.289062 -33.03125 29.21875 -36.9375 C 28.144531 -40.851562 27.003906 -45.160156 25.796875 -49.859375 L 28.328125 -49.859375 C 27.148438 -45.160156 26.050781 -40.84375 25.03125 -36.90625 C 24.019531 -32.96875 23.007812 -29.335938 22 -26.015625 L 13.59375 0 Z M 13.046875 -12.328125 L 13.046875 -21.03125 L 41.65625 -21.03125 L 41.65625 -12.328125 Z M 13.046875 -12.328125 "/></g></g></g><g fill="#010101" fill-opacity="1"><g transform="translate(310.383324, 214.499986)"><g><path d="M 28.25 0.765625 C 23.457031 0.765625 19.164062 -0.328125 15.375 -2.515625 C 11.582031 -4.710938 8.59375 -7.867188 6.40625 -11.984375 C 4.226562 -16.109375 3.140625 -21.078125 3.140625 -26.890625 C 3.140625 -32.710938 4.234375 -37.6875 6.421875 -41.8125 C 8.617188 -45.945312 11.617188 -49.109375 15.421875 -51.296875 C 19.234375 -53.492188 23.507812 -54.59375 28.25 -54.59375 C 31.332031 -54.59375 34.203125 -54.160156 36.859375 -53.296875 C 39.523438 -52.429688 41.882812 -51.164062 43.9375 -49.5 C 45.988281 -47.84375 47.671875 -45.820312 48.984375 -43.4375 C 50.296875 -41.050781 51.15625 -38.335938 51.5625 -35.296875 L 40.390625 -35.296875 C 40.128906 -36.796875 39.648438 -38.132812 38.953125 -39.3125 C 38.253906 -40.488281 37.382812 -41.488281 36.34375 -42.3125 C 35.3125 -43.132812 34.132812 -43.753906 32.8125 -44.171875 C 31.488281 -44.597656 30.039062 -44.8125 28.46875 -44.8125 C 25.625 -44.8125 23.132812 -44.097656 21 -42.671875 C 18.875 -41.253906 17.234375 -39.210938 16.078125 -36.546875 C 14.921875 -33.890625 14.34375 -30.671875 14.34375 -26.890625 C 14.34375 -23.054688 14.925781 -19.804688 16.09375 -17.140625 C 17.257812 -14.484375 18.898438 -12.46875 21.015625 -11.09375 C 23.140625 -9.71875 25.625 -9.03125 28.46875 -9.03125 C 30.007812 -9.03125 31.441406 -9.242188 32.765625 -9.671875 C 34.097656 -10.109375 35.285156 -10.726562 36.328125 -11.53125 C 37.378906 -12.34375 38.253906 -13.335938 38.953125 -14.515625 C 39.648438 -15.703125 40.144531 -17.039062 40.4375 -18.53125 L 51.59375 -18.53125 C 51.257812 -15.90625 50.484375 -13.4375 49.265625 -11.125 C 48.046875 -8.8125 46.429688 -6.757812 44.421875 -4.96875 C 42.410156 -3.175781 40.050781 -1.769531 37.34375 -0.75 C 34.632812 0.257812 31.601562 0.765625 28.25 0.765625 Z M 28.25 0.765625 "/></g></g></g></svg>