<svg xmlns="http://www.w3.org/2000/svg" xml:space="preserve" style="enable-background:new 0 0 260.7000122 185.5" viewBox="88.28 4.55 84.15 121.67"><path d="M145.7216187 52.5744324v20.9119873h3.0610046c2.6149902 0 4.4719849-.2689819 5.571991-.8209839 1.1040039-.5430298 1.9689941-1.507019 2.6000061-2.8699951.6210022-1.3640137.9309998-3.5830078.9309998-6.6500244 0-4.0559692-.696991-6.8280029-2.0899963-8.3259888-1.4040222-1.4959717-3.7180176-2.2449951-6.9560242-2.2449951h-3.117981zm-12.4920044-8.6740113h18.5669861c3.651001 0 6.6070251.4730225 8.8670044 1.40802 2.25.9459839 4.1130066 2.2910156 5.5830078 4.0469971 1.4680176 1.7650146 2.5320129 3.8059692 3.2009888 6.1409912.6590271 2.3369751.9880066 4.8059692.9880066 7.4179688 0 4.0910034-.4889832 7.2650146-1.4779968 9.519043-.980011 2.2559814-2.3439941 4.1449585-4.0950012 5.6610107-1.7420044 1.5239868-3.6149902 2.5409546-5.618988 3.0469971-2.7400208.6969604-5.2270203 1.0440063-7.4470215 1.0440063h-18.5669861V43.9004211zm-44.9529953.0269776h13.293991l9.9069977 8.0140381 10.5070038-8.0140381h11.7720108v38.2850342h-12.7190018V60.7584534l-10.0130157 11.3359985-.644989.197998-8.9369965-10.94104v20.8610229H88.276619V43.9273987z" class="st0"/><path d="M147.7098999 50.5861511v20.9109497h3.059021c2.618988 0 4.473999-.2669678 5.5749817-.8189697 1.1010132-.5440063 1.9660034-1.507019 2.598999-2.8710327.6210022-1.3649902.9300232-3.5829468.9300232-6.6499634 0-4.0549927-.6960144-6.8280029-2.0880127-8.3250122-1.4039917-1.4970093-3.7189941-2.2459717-6.9590149-2.2459717h-3.1159973zm-12.492981-8.6730346h18.565979c3.6530151 0 6.6090088.4719849 8.8690186 1.40802 2.25.9450073 4.1130066 2.2910156 5.5820007 4.0479736 1.4689941 1.7640381 2.5329895 3.8049927 3.2009888 6.1420288.6579895 2.3339844.9879761 4.8029785.9879761 7.4140015 0 4.0929565-.4879761 7.2659912-1.4759827 9.5219727-.9809875 2.2540283-2.3459778 4.1439819-4.0979919 5.6589966-1.7399902 1.5239868-3.6130066 2.5400391-5.617981 3.0480347-2.7400208.6959839-5.2260132 1.0429688-7.4480286 1.0429688h-18.565979V41.9131165zm-44.9520034.0269775h13.2929993l9.9079895 8.0150146 10.5080109-8.0150146h11.7709885v38.28302h-12.7189865V58.7701111l-10.0150146 11.3359985-.6419983.197998-8.9379883-10.9389648V80.223114H90.2649155v-38.28302z" style="fill-rule:evenodd;clip-rule:evenodd;fill:#fff"/><path d="m127.7238235 6.0362868.9840012 2.4220577 1.96698 1.513977 1.3110046 2.7249756-.6529846 4.8430185.9809876 16.9530011 2.9509887-.3040162 1.6390076-2.7229595 2.6230164-1.5130005 1.9669799-1.2120361h2.6230164l2.2940063-1.5130005 2.9519959-2.4209595 2.6219787-1.8170166 2.6220093-1.5140381 3.6069947-2.723999 1.9670105-2.421997 3.6059875-1.513978 2.6220093-2.1190186 2.6230163 1.81604v3.0269785l-1.9660034 1.5150147-4.9179993 3.0269775-5.572998 3.934021-2.2960205 2.7249756-3.6059876.6060181-1.6380004 1.815979-3.2799988 1.5140361-1.6380005 1.5119629-3.6069946 2.7260132-3.933014 2.723999-3.2789917 2.1199952-.3280029 5.7520141v15.1350098l1.3129883 9.9920044 1.309021 7.8709717-.6549988 6.3569946.9819946 6.0540161 1.3129883 8.7789917v2.118988l-.3280029 4.5409851.6549988 9.9900208-1.3110047 5.4490051.9840088 2.4219971-5.8989868-2.4219971-1.3139954-2.4220276 1.6409913-21.4929809-.9850159-8.4759827-1.6389771-5.4490356v-9.6889649l-1.6380081-5.7520141v-8.1719971l-.3280029-15.1380005-.9850006-3.026001-4.5899964 1.8150025-4.2610015 2.7250366-1.6380005 3.329956-4.5910035 3.0280152-6.2290039 3.0269775-5.2449951 3.3300171-5.2449951 3.6329956-2.951004 1.2109986h-2.2949982l-.6560058-1.5150147v-2.4199829l4.2640075-2.4229736 5.8999939-3.0270386 4.9160004-3.9349976 3.9349975-3.329956 3.9329987-3.9360352 1.9680023-1.2119751 1.6390076-2.4210205 3.6069946-2.1190185 2.6230011-1.5130005 4.9160004-1.5139771-.9830017-23.0079946-.9830017-4.2379761z" class="st0"/><path d="m130.3410034 4.8833938.9819946 2.4220581 1.9670105 1.513 1.3110047 2.723999-.6549988 4.8429575.9830017 16.9550152 2.9509888-.3029785 1.6390076-2.7260113 2.6219787-1.5120239 1.9680176-1.2130127h2.6210022l2.2969971-1.5130005 2.9490051-2.4199829 2.6239929-1.815979 2.625-1.5150147 3.6029968-2.723999 1.9680176-2.4229746 3.6059876-1.5140381 2.6229858-2.1189575 2.6230164 1.8169556v3.0260019l-1.9670105 1.5150146-4.9179993 3.0269776-5.571991 3.9349975-2.296997 2.7239991-3.605011.6070556-1.6390076 1.815979-3.2799988 1.5130005-1.6399841 1.5150128-3.605011 2.7249756-3.9329834 2.723999-3.2790222 2.1190185-.3289795 5.7529908v15.1350097l1.3139954 9.9899903 1.3089904 7.8709716-.6549987 6.3580323.9830017 6.0540161 1.3120117 8.7789612v2.1199951l-.3280029 4.5400085.6560058 9.9899903-1.3120117 5.4490051.9840088 2.4230041-5.901001-2.4230041-1.3120117-2.4219971 1.6400146-21.4930115-.9840088-8.4769897-1.6380004-5.4489746V75.115448l-1.6390076-5.7510376v-8.1740112l-.3280029-15.1359864-.9849854-3.0269775-4.5890121 1.8169556-4.2619934 2.7230224-1.6390076 3.3309937-4.5899964 3.0270386-6.2290039 3.0279541-5.243988 3.3280029-5.2470093 3.6340332-2.9519958 1.2109985h-2.2929993l-.6560059-1.5150146v-2.4210205l4.2620087-2.4219971 5.9019928-3.0269775 4.9170075-3.934021 3.9339904-3.3319703 3.9340058-3.9349975 1.9649963-1.210022 1.6410065-2.4240112 3.6060028-2.117981 2.6229858-1.5130005 4.9170151-1.5130004-.9830093-23.0079947-.9830017-4.2390137z" style="fill-rule:evenodd;clip-rule:evenodd;fill:#fff"/><path d="m130.3410034 4.8833938.9819946 2.4220581 1.9670105 1.513 1.3110047 2.723999-.6549988 4.8429575.9830017 16.9550152 2.9509888-.3029785 1.6390076-2.7260113 2.6219787-1.5120239 1.9680176-1.2130127h2.6210022l2.2969971-1.5130005 2.9490051-2.4199829 2.6239929-1.8179932 2.625-1.5130005 3.6029968-2.723999 1.9680176-2.4229746 3.6059876-1.5140381 2.6229858-2.1189575 2.6230164 1.8169556v3.0260019l-1.9670105 1.5150146-4.9179993 3.0269776-5.571991 3.9349975-2.296997 2.7239991-3.605011.6070556-1.6390076 1.815979-3.2799988 1.5130005-1.6399841 1.5150128-3.605011 2.7229614-3.9329834 2.7260132-3.2790222 2.1190185-.3289795 5.7529908v15.1350097l1.3139954 9.9899903 1.3089904 7.8709716-.6549987 6.3580323.9830017 6.0529785 1.3120117 8.7799988v2.1199951l-.3280029 4.5400085.6560058 9.9899903-1.3120117 5.4490051.9840088 2.4230041-5.901001-2.4230041-1.3120117-2.4219971 1.6400146-21.4930115-.9840088-8.4769897-1.6380004-5.4489746V75.115448l-1.6390076-5.7510376v-8.1740112l-.3280029-15.1359864-.9849854-3.0269775-4.5890121 1.8169556-4.2619934 2.7230224-1.6390076 3.3309937-4.5899964 3.0270386-6.2290039 3.0279541-5.243988 3.3280029-5.2470093 3.6340332-2.9519958 1.2109985h-2.2929993l-.6560059-1.5150146v-2.4210205l4.2620087-2.4219971 5.9019928-3.0269775 4.9170075-3.934021 3.9339904-3.3319703 3.9340058-3.9349975 1.9649963-1.210022 1.6410065-2.4240112 3.6060028-2.117981 2.6229858-1.5130005 4.9170151-1.5150146-.9820023-23.0059805-.9840087-4.2390137z" style="fill:none;stroke:#242422;stroke-width:.661;stroke-miterlimit:22.9260006"/></svg>